<?xml version="1.0" encoding="utf-8"?>
<!-- Generator: Adobe Illustrator 22.1.0, SVG Export Plug-In . SVG Version: 6.00 Build 0)  -->
<svg version="1.1" xmlns="http://www.w3.org/2000/svg" xmlns:xlink="http://www.w3.org/1999/xlink" x="0px" y="0px"
	 viewBox="0 0 22 29.9" style="enable-background:new 0 0 22 29.9;" xml:space="preserve">
<style type="text/css">
	.st0{display:none;}
	.st1{display:inline;fill:#DE5145;}
	.st2{fill:#E0E0D1;}
	.st3{opacity:0.2;}
	.st4{fill:#231F20;}
	.st5{fill:#FFFFFF;}
</style>
<g id="Layer_3" class="st0">
	<path class="st1" d="M22,14.3c0,2.2,0,3.7-0.1,4.5c-0.1,2-0.7,3.5-1.8,4.6c-1.1,1.1-2.6,1.7-4.6,1.8c-0.8,0.1-2.3,0.1-4.5,0.1
		c-2.2,0-3.7,0-4.5-0.1c-2-0.1-3.5-0.7-4.6-1.8c-1.1-1.1-1.7-2.6-1.8-4.6c-0.1-0.8-0.1-2.3-0.1-4.5s0-3.7,0.1-4.5
		c0.1-2,0.7-3.5,1.8-4.6c1.1-1.1,2.6-1.7,4.6-1.8C7.5,3.5,9,3.5,11.2,3.5c2.2,0,3.7,0,4.5,0.1c2,0.1,3.5,0.7,4.6,1.8
		c1.1,1.1,1.7,2.6,1.8,4.6C21.9,10.7,22,12.1,22,14.3z M12.2,5.4c-0.7,0-1,0-1.1,0s-0.4,0-1.1,0c-0.7,0-1.2,0-1.5,0
		c-0.4,0-0.8,0-1.4,0.1c-0.6,0-1.1,0.1-1.5,0.2C5.4,5.6,5,5.7,4.8,5.8C4.3,6,3.9,6.3,3.5,6.7C3.1,7,2.9,7.4,2.7,7.9
		c-0.1,0.3-0.2,0.6-0.3,1s-0.1,0.9-0.2,1.5c0,0.6-0.1,1-0.1,1.4s0,0.9,0,1.5c0,0.7,0,1,0,1.1s0,0.4,0,1.1c0,0.7,0,1.2,0,1.5
		c0,0.4,0,0.8,0.1,1.4c0,0.6,0.1,1.1,0.2,1.5s0.2,0.8,0.3,1c0.2,0.5,0.5,0.9,0.8,1.3c0.4,0.4,0.8,0.6,1.3,0.8C5,22.9,5.4,23,5.8,23
		c0.4,0.1,0.9,0.1,1.5,0.2c0.6,0.1,1,0.1,1.4,0.1c0.4,0,0.9,0,1.5,0c0.7,0,1,0,1.1,0s0.4,0,1.1,0c0.7,0,1.2,0,1.5,0
		c0.4,0,0.8,0,1.4-0.1c0.6,0,1.1-0.1,1.5-0.2c0.4-0.1,0.8-0.2,1-0.3c0.5-0.2,0.9-0.5,1.3-0.8c0.4-0.4,0.6-0.8,0.8-1.3
		c0.1-0.3,0.2-0.6,0.3-1c0.1-0.4,0.1-0.9,0.2-1.5c0-0.6,0.1-1,0.1-1.4c0-0.4,0-0.9,0-1.5c0-0.7,0-1,0-1.1s0-0.4,0-1.1s0-1.2,0-1.5
		c0-0.4,0-0.8-0.1-1.4c0-0.6-0.1-1.1-0.2-1.5c-0.1-0.4-0.2-0.8-0.3-1c-0.2-0.5-0.5-0.9-0.8-1.3C18.5,6.3,18,6,17.5,5.8
		c-0.3-0.1-0.6-0.2-1-0.3s-0.9-0.1-1.5-0.2c-0.6,0-1-0.1-1.4-0.1C13.4,5.4,12.9,5.4,12.2,5.4z M15.1,10.4c1.1,1.1,1.6,2.4,1.6,4
		s-0.6,2.8-1.6,4c-1.1,1.1-2.4,1.6-4,1.6c-1.6,0-2.8-0.6-4-1.6c-1.1-1.1-1.6-2.4-1.6-4s0.6-2.8,1.6-4c1.1-1.1,2.4-1.6,4-1.6
		S14,9.2,15.1,10.4z M13.7,16.8c0.7-0.7,1.1-1.6,1.1-2.5s-0.4-1.9-1.1-2.6s-1.6-1.1-2.6-1.1S9.2,11,8.5,11.7s-1.1,1.6-1.1,2.6
		s0.4,1.9,1.1,2.5c0.7,0.7,1.6,1.1,2.6,1.1C12.1,17.9,13,17.6,13.7,16.8z M17.8,7.6c0.3,0.3,0.4,0.6,0.4,0.9c0,0.4-0.2,0.7-0.4,0.9
		c-0.3,0.3-0.6,0.4-0.9,0.4c-0.4,0-0.7-0.2-0.9-0.4c-0.3-0.3-0.4-0.6-0.4-0.9c0-0.4,0.2-0.7,0.4-0.9c0.3-0.3,0.6-0.4,0.9-0.4
		C17.3,7.2,17.6,7.3,17.8,7.6z"/>
</g>
<g id="Layer_2">
	<g>
		<g>
			<path class="st2" d="M21.6,19.6c0,1.2-1,2.1-2.1,2.1h-17c-1.2,0-2.1-1-2.1-2.1V9c0-1.2,1-2.1,2.1-2.1h17c1.2,0,2.1,1,2.1,2.1
				V19.6z"/>
		</g>
		<g class="st3">
			<g>
				<path class="st4" d="M12.8,13.3c-1-1.1-2.7-1.1-3.7,0l-8.2,6.9c-0.1,0.1-0.2,0.2-0.3,0.3c0.4,0.7,1.1,1.2,1.8,1.2h17
					c0.8,0,1.4-0.5,1.8-1.2c-0.1-0.1-0.2-0.2-0.3-0.3L12.8,13.3z"/>
			</g>
		</g>
		<g>
			<g>
				<path class="st2" d="M12.8,14.3c-1-1-2.7-1-3.7,0l-8.2,6.1c-0.1,0.1-0.2,0.2-0.3,0.3c0.4,0.6,1.1,1,1.8,1h17
					c0.8,0,1.4-0.4,1.8-1c-0.1-0.1-0.2-0.2-0.3-0.3L12.8,14.3z"/>
			</g>
		</g>
		<g class="st3">
			<g>
				<path class="st4" d="M0.7,8C1,7.3,1.7,6.9,2.5,6.9h17c0.8,0,1.4,0.5,1.8,1.2c-0.1,0.1-0.2,0.2-0.3,0.3l-8.2,6.9
					c-1,1.1-2.7,1.1-3.7,0L0.7,8z"/>
			</g>
		</g>
		<g>
			<g>
				<path class="st5" d="M9.1,14.3c1,1,2.7,1,3.7,0L21,8.2c0.1-0.1,0.2-0.2,0.3-0.3c-0.4-0.6-1.1-1-1.8-1h-17c-0.8,0-1.4,0.4-1.8,1
					C0.7,8,0.8,8.1,0.9,8.2L9.1,14.3z"/>
			</g>
		</g>
	</g>
</g>
</svg>
