<?xml version="1.0" encoding="utf-8"?>
<!-- Generator: Adobe Illustrator 22.1.0, SVG Export Plug-In . SVG Version: 6.00 Build 0)  -->
<svg version="1.1" id="Layer_2" xmlns="http://www.w3.org/2000/svg" xmlns:xlink="http://www.w3.org/1999/xlink" x="0px" y="0px"
	 viewBox="0 0 22 40" style="enable-background:new 0 0 22 40;" xml:space="preserve">
<style type="text/css">
	.st0{fill:#FFFFFF;}
</style>
<path class="st0" d="M22,19.7c0,2.2,0,3.7-0.1,4.5c-0.1,2-0.7,3.5-1.8,4.6c-1.1,1.1-2.6,1.7-4.6,1.8c-0.8,0.1-2.3,0.1-4.5,0.1
	c-2.2,0-3.7,0-4.5-0.1c-2-0.1-3.5-0.7-4.6-1.8c-1.1-1.1-1.7-2.6-1.8-4.6c-0.1-0.8-0.1-2.3-0.1-4.5s0-3.7,0.1-4.5
	c0.1-2,0.7-3.5,1.8-4.6C3.2,9.7,4.7,9.1,6.7,9C7.5,8.9,9,8.9,11.2,8.9c2.2,0,3.7,0,4.5,0.1c2,0.1,3.5,0.7,4.6,1.8
	c1.1,1.1,1.7,2.6,1.8,4.6C21.9,16.1,22,17.6,22,19.7z M12.2,10.8c-0.7,0-1,0-1.1,0s-0.4,0-1.1,0c-0.7,0-1.2,0-1.5,0
	c-0.4,0-0.8,0-1.4,0.1c-0.6,0-1.1,0.1-1.5,0.2c-0.4,0.1-0.8,0.2-1,0.3c-0.5,0.2-0.9,0.5-1.3,0.8c-0.4,0.4-0.6,0.8-0.8,1.3
	c-0.1,0.3-0.2,0.6-0.3,1s-0.1,0.9-0.2,1.5c0,0.6-0.1,1-0.1,1.4c0,0.4,0,0.9,0,1.5c0,0.7,0,1,0,1.1s0,0.4,0,1.1c0,0.7,0,1.2,0,1.5
	c0,0.4,0,0.8,0.1,1.4c0,0.6,0.1,1.1,0.2,1.5s0.2,0.8,0.3,1c0.2,0.5,0.5,0.9,0.8,1.3c0.4,0.4,0.8,0.6,1.3,0.8c0.3,0.1,0.6,0.2,1,0.3
	c0.4,0.1,0.9,0.1,1.5,0.2c0.6,0.1,1,0.1,1.4,0.1c0.4,0,0.9,0,1.5,0c0.7,0,1,0,1.1,0s0.4,0,1.1,0c0.7,0,1.2,0,1.5,0
	c0.4,0,0.8,0,1.4-0.1c0.6,0,1.1-0.1,1.5-0.2c0.4-0.1,0.8-0.2,1-0.3c0.5-0.2,0.9-0.5,1.3-0.8c0.4-0.4,0.6-0.8,0.8-1.3
	c0.1-0.3,0.2-0.6,0.3-1c0.1-0.4,0.1-0.9,0.2-1.5c0-0.6,0.1-1,0.1-1.4c0-0.4,0-0.9,0-1.5c0-0.7,0-1,0-1.1s0-0.4,0-1.1
	c0-0.7,0-1.2,0-1.5c0-0.4,0-0.8-0.1-1.4c0-0.6-0.1-1.1-0.2-1.5c-0.1-0.4-0.2-0.8-0.3-1c-0.2-0.5-0.5-0.9-0.8-1.3
	c-0.4-0.4-0.8-0.6-1.3-0.8c-0.3-0.1-0.6-0.2-1-0.3s-0.9-0.1-1.5-0.2c-0.6,0-1-0.1-1.4-0.1C13.4,10.8,12.9,10.8,12.2,10.8z
	 M15.1,15.8c1.1,1.1,1.6,2.4,1.6,4c0,1.6-0.6,2.8-1.6,4c-1.1,1.1-2.4,1.6-4,1.6c-1.6,0-2.8-0.6-4-1.6c-1.1-1.1-1.6-2.4-1.6-4
	c0-1.6,0.6-2.8,1.6-4c1.1-1.1,2.4-1.6,4-1.6S14,14.7,15.1,15.8z M13.7,22.3c0.7-0.7,1.1-1.6,1.1-2.5s-0.4-1.9-1.1-2.6
	c-0.7-0.7-1.6-1.1-2.6-1.1s-1.9,0.4-2.6,1.1c-0.7,0.7-1.1,1.6-1.1,2.6s0.4,1.9,1.1,2.5c0.7,0.7,1.6,1.1,2.6,1.1
	C12.1,23.3,13,23,13.7,22.3z M17.8,13c0.3,0.3,0.4,0.6,0.4,0.9s-0.2,0.7-0.4,0.9c-0.3,0.3-0.6,0.4-0.9,0.4c-0.4,0-0.7-0.2-0.9-0.4
	c-0.3-0.3-0.4-0.6-0.4-0.9s0.2-0.7,0.4-0.9c0.3-0.3,0.6-0.4,0.9-0.4C17.3,12.6,17.6,12.8,17.8,13z"/>
</svg>
