<?xml version="1.0" encoding="utf-8"?>
<!-- Generator: Adobe Illustrator 22.1.0, SVG Export Plug-In . SVG Version: 6.00 Build 0)  -->
<svg version="1.1" id="Layer_2" xmlns="http://www.w3.org/2000/svg" xmlns:xlink="http://www.w3.org/1999/xlink" x="0px" y="0px"
	 viewBox="0 0 22 29.9" style="enable-background:new 0 0 22 29.9;" xml:space="preserve">
<style type="text/css">
	.st0{display:none;fill-rule:evenodd;clip-rule:evenodd;fill:#E6DDED;}
	.st1{display:none;fill-rule:evenodd;clip-rule:evenodd;fill:url(#SVGID_1_);}
	.st2{display:none;fill-rule:evenodd;clip-rule:evenodd;fill:url(#SVGID_2_);}
	.st3{opacity:0.2;}
	.st4{fill:#231F20;}
	.st5{fill:#FFFFFF;}
</style>
<rect class="st0" width="22" height="29.9"/>
<linearGradient id="SVGID_1_" gradientUnits="userSpaceOnUse" x1="13.2544" y1="-9.8517" x2="26.6834" y2="4.8423">
	<stop  offset="3.224421e-02" style="stop-color:#B490CA"/>
	<stop  offset="0.3052" style="stop-color:#A0A5CF"/>
	<stop  offset="0.8651" style="stop-color:#6BDADC"/>
	<stop  offset="0.9946" style="stop-color:#5EE7DF"/>
</linearGradient>
<path class="st1" d="M31.4,2.6c0,0.3,0,0.6-0.3,0.9l-2.9,2.9c-0.1,0.1-0.3,0.3-0.5,0.4c-0.2,0.1-0.4,0.1-0.6,0.2c0,0-0.1,0-0.1,0
	c-0.1,0-0.2,0-0.3,0c-0.3,0-0.7-0.1-1.3-0.2c-0.6-0.1-1.4-0.3-2.2-0.7c-0.9-0.4-1.9-0.9-3-1.7c-1.1-0.7-2.3-1.7-3.6-3
	c-1-1-1.8-1.9-2.5-2.9c-0.7-0.9-1.2-1.7-1.6-2.5c-0.4-0.8-0.7-1.5-0.9-2.1c-0.2-0.6-0.3-1.2-0.4-1.6C11-8.2,11-8.6,11-8.8
	c0-0.2,0-0.4,0-0.4c0-0.2,0.1-0.4,0.2-0.6c0.1-0.2,0.2-0.4,0.4-0.5c6.8-6.8,7.2,2.5,6.5,3.2L17-6.1c0,0,0,0.1-0.1,0.1
	c0,0,0,0.1,0,0.1c0.1,0.3,0.2,0.7,0.4,1c0.2,0.4,0.5,0.8,0.8,1.3c0.3,0.5,0.8,1.1,1.5,1.7c0.6,0.7,1.2,1.2,1.7,1.5
	c0.5,0.4,0.9,0.7,1.2,0.8c0.3,0.2,0.6,0.3,0.8,0.3L23.7,1c0,0,0.1,0,0.1,0c0,0,0.1-0.1,0.1-0.1C26.9-2.1,31.1,1.3,31.4,2.6L31.4,2.6
	z"/>
<linearGradient id="SVGID_2_" gradientUnits="userSpaceOnUse" x1="3.8498" y1="7.3149" x2="17.2788" y2="22.009">
	<stop  offset="3.224422e-02" style="stop-color:#30CFD0"/>
	<stop  offset="0.1647" style="stop-color:#30BAC5"/>
	<stop  offset="0.4382" style="stop-color:#3185A9"/>
	<stop  offset="0.8254" style="stop-color:#322F7C"/>
	<stop  offset="0.9946" style="stop-color:#330867"/>
</linearGradient>
<path class="st2" d="M22,19.7c0,0.3,0,0.6-0.3,0.9l-2.9,2.9c-0.1,0.1-0.3,0.3-0.5,0.4c-0.2,0.1-0.4,0.1-0.6,0.2c0,0-0.1,0-0.1,0
	c-0.1,0-0.2,0-0.3,0c-0.3,0-0.7-0.1-1.3-0.2c-0.6-0.1-1.4-0.3-2.2-0.7c-0.9-0.4-1.9-0.9-3-1.7c-1.1-0.7-2.3-1.7-3.6-3
	c-1-1-1.8-1.9-2.5-2.9C3.9,14.8,3.4,14,3,13.2c-0.4-0.8-0.7-1.5-0.9-2.1c-0.2-0.6-0.3-1.2-0.4-1.6c0-0.4-0.1-0.8-0.1-1.1
	c0-0.2,0-0.4,0-0.4c0-0.2,0.1-0.4,0.2-0.6C1.9,7.1,2,7,2.2,6.8C9,0,9.4,9.3,8.7,10l-1.1,1.1c0,0,0,0.1-0.1,0.1c0,0,0,0.1,0,0.1
	c0.1,0.3,0.2,0.7,0.4,1c0.2,0.4,0.5,0.8,0.8,1.3c0.3,0.5,0.8,1.1,1.5,1.7c0.6,0.7,1.2,1.2,1.7,1.5c0.5,0.4,0.9,0.7,1.2,0.8
	c0.3,0.2,0.6,0.3,0.8,0.3l0.3,0.1c0,0,0.1,0,0.1,0c0,0,0.1-0.1,0.1-0.1C17.5,15.1,21.7,18.5,22,19.7L22,19.7z"/>
<g class="st3">
	<g>
		<path class="st4" d="M9.2,10.2C9,7.3,6,6,5.9,5.9C5.7,5.8,5.6,5.8,5.5,5.8C2,6.4,1.6,8.4,1.5,8.5c0,0.1,0,0.2,0,0.4
			c4.1,12.7,12.6,15,15.3,15.8c0.2,0.1,0.4,0.1,0.5,0.2c0.1,0,0.1,0.1,0.2,0.1c0.1,0,0.2,0,0.3-0.1c0.1-0.1,2.1-1,2.6-4.1
			c0-0.1,0-0.3-0.1-0.4c-0.1-0.1-1.1-2.1-4-2.8c-0.2-0.1-0.4,0-0.6,0.1c-0.9,0.8-2.2,1.6-2.7,1.7c-3.7-1.8-5.7-5.3-5.8-5.9
			C7.2,13.1,8,11.8,9,10.7C9.2,10.6,9.2,10.3,9.2,10.2z"/>
	</g>
</g>
<g>
	<g>
		<path class="st5" d="M9.2,9C9,6.1,6,4.8,5.9,4.7C5.7,4.7,5.6,4.7,5.5,4.7C2,5.2,1.6,7.2,1.5,7.3c0,0.1,0,0.2,0,0.4
			c4.1,12.7,12.6,15,15.3,15.8c0.2,0.1,0.4,0.1,0.5,0.2c0.1,0,0.1,0.1,0.2,0.1c0.1,0,0.2,0,0.3-0.1c0.1-0.1,2.1-1,2.6-4.1
			c0-0.1,0-0.3-0.1-0.4c-0.1-0.1-1.1-2.1-4-2.8c-0.2-0.1-0.4,0-0.6,0.1c-0.9,0.8-2.2,1.6-2.7,1.7c-3.7-1.8-5.7-5.3-5.8-5.9
			C7.2,11.9,8,10.6,9,9.5C9.2,9.4,9.2,9.2,9.2,9z"/>
	</g>
</g>
</svg>
