<?xml version="1.0" encoding="utf-8"?>
<!-- Generator: Adobe Illustrator 21.0.2, SVG Export Plug-In . SVG Version: 6.00 Build 0)  -->
<svg version="1.1" id="Layer_1" xmlns="http://www.w3.org/2000/svg" xmlns:xlink="http://www.w3.org/1999/xlink" x="0px" y="0px"
	 width="22px" height="40px" viewBox="0 0 22 40" style="enable-background:new 0 0 22 40;" xml:space="preserve">
<style type="text/css">
	.st0{fill:#FFFFFF;}
</style>
<g id="Realese-1">
	<g id="Realese_user_page-FINAL" transform="translate(-248.000000, -488.000000)">
		<g id="_x36_" transform="translate(248.000000, 488.000000)">
			<path id="Shape" class="st0" d="M21.2,21.8c0,0,0,0.1,0,0.1l0-0.2C21.2,21.8,21.2,21.8,21.2,21.8c0.1-0.6,0.2-1.3,0.2-1.9
				c0-1.4-0.3-2.8-0.8-4c-0.5-1.2-1.3-2.3-2.2-3.3c-1-1-2.1-1.7-3.3-2.2c-1.3-0.5-2.6-0.8-4-0.8c-0.7,0-1.3,0.1-2,0.2c0,0,0,0,0,0
				c0,0,0.1,0,0.1,0.1l-0.2,0c0,0,0.1,0,0.1,0C8.2,9.3,7.2,9,6.2,9C4.5,9,3,9.7,1.8,10.8C0.6,12,0,13.5,0,15.2c0,1,0.3,2.1,0.8,3
				c0,0,0-0.1,0-0.1l0,0.2c0,0,0-0.1-0.1-0.1c-0.1,0.6-0.2,1.2-0.2,1.8c0,1.4,0.3,2.8,0.8,4c0.5,1.2,1.3,2.3,2.2,3.3
				c1,1,2.1,1.7,3.3,2.2c1.3,0.5,2.6,0.8,4,0.8c0.6,0,1.2-0.1,1.8-0.2c0,0-0.1,0-0.1-0.1l0.2,0c0,0-0.1,0-0.1,0c0.9,0.5,2,0.8,3,0.8
				c1.6,0,3.2-0.6,4.3-1.8c1.2-1.2,1.8-2.7,1.8-4.3C22,23.8,21.7,22.7,21.2,21.8L21.2,21.8L21.2,21.8z M11,26.3
				c-3.7,0-5.3-1.8-5.3-3.2c0-0.7,0.5-1.2,1.2-1.2c1.6,0,1.2,2.3,4.1,2.3c1.5,0,2.3-0.8,2.3-1.7c0-0.5-0.2-1.1-1.2-1.3l-3.3-0.8
				c-2.6-0.7-3.1-2.1-3.1-3.4c0-2.8,2.6-3.8,5.1-3.8c2.3,0,5,1.3,5,2.9c0,0.7-0.6,1.1-1.3,1.1c-1.3,0-1.1-1.9-3.8-1.9
				c-1.3,0-2.1,0.6-2.1,1.5c0,0.9,1.1,1.1,2,1.4l2.4,0.5c2.7,0.6,3.3,2.1,3.3,3.6C16.3,24.6,14.6,26.3,11,26.3L11,26.3z M12.7,30.1
				c0,0,0.1,0,0.1,0.1c0,0,0.1,0,0.1,0L12.7,30.1L12.7,30.1z M21.2,21.9c0,0,0-0.1,0-0.1c0,0,0-0.1-0.1-0.1L21.2,21.9L21.2,21.9z
				 M0.8,18c0,0,0,0.1,0,0.1c0,0,0,0.1,0.1,0.1L0.8,18L0.8,18z M9.1,9.8c0,0-0.1,0-0.1-0.1c0,0-0.1,0-0.1,0L9.1,9.8L9.1,9.8z"/>
		</g>
	</g>
</g>
</svg>
