<?xml version="1.0" encoding="utf-8"?>
<!-- Generator: Adobe Illustrator 21.0.2, SVG Export Plug-In . SVG Version: 6.00 Build 0)  -->
<svg version="1.1" id="Layer_1" xmlns="http://www.w3.org/2000/svg" xmlns:xlink="http://www.w3.org/1999/xlink" x="0px" y="0px"
	 width="22px" height="40px" viewBox="0 0 22 40" style="enable-background:new 0 0 22 40;" xml:space="preserve">
<style type="text/css">
	.st0{fill:#C8DAEA;}
	.st1{fill:#A9C9DD;}
	.st2{fill:url(#Shape_3_);}
</style>
<title>Telegram_logo</title>
<desc>Created with Sketch.</desc>
<g id="Page-1">
	<g id="Telegram_logo">
		<path id="Shape" class="st0" d="M8.3,28.1c-0.7,0-0.5-0.2-0.8-0.9l-1.9-6.3l14.8-8.8"/>
		<path id="Shape_1_" class="st1" d="M8.3,28.1c0.5,0,0.7-0.2,1-0.5L12,25l-3.4-2"/>
		
			<linearGradient id="Shape_3_" gradientUnits="userSpaceOnUse" x1="-914.2798" y1="537.2874" x2="-914.177" y2="537.0084" gradientTransform="matrix(28.8171 0 0 -24.1701 26359.5234 13005.4102)">
			<stop  offset="0" style="stop-color:#EFF7FC"/>
			<stop  offset="1" style="stop-color:#FFFFFF"/>
		</linearGradient>
		<path id="Shape_2_" class="st2" d="M8.6,23l8.2,6c0.9,0.5,1.6,0.2,1.8-0.9l3.3-15.6c0.3-1.4-0.5-2-1.4-1.6L1,18.4
			c-1.3,0.5-1.3,1.3-0.2,1.6l5,1.6l11.6-7.3c0.5-0.3,1-0.2,0.6,0.2"/>
	</g>
</g>
</svg>
