<?xml version="1.0" encoding="utf-8"?>
<!-- Generator: Adobe Illustrator 21.0.2, SVG Export Plug-In . SVG Version: 6.00 Build 0)  -->
<svg version="1.1" id="Layer_1" xmlns="http://www.w3.org/2000/svg" xmlns:xlink="http://www.w3.org/1999/xlink" x="0px" y="0px"
	 width="20.5px" height="40px" viewBox="0 0 20.5 40" style="enable-background:new 0 0 20.5 40;" xml:space="preserve">
<style type="text/css">
	.st0{fill:#FFFFFF;}
</style>
<g id="Realese-1">
	<g id="Realese_user_page-FINAL" transform="translate(-67.000000, -488.000000)">
		<g id="_x34_" transform="translate(67.000000, 488.000000)">
			<path id="Fill-4775" class="st0" d="M18.2,11.3c-0.5-0.5-2.7-2.1-7.5-2.1c0,0-5.7-0.3-8.5,2.2C0.6,13,0.1,15.2,0,18
				C0,20.8-0.1,26.1,5,27.5c0,0,0,0,0,0l0,2.2c0,0,0,0.9,0.5,1.1c0.7,0.2,1.1-0.5,1.8-1.2c0.4-0.4,0.9-1,1.3-1.4
				c3.5,0.3,6.1-0.4,6.4-0.5c0.7-0.2,4.7-0.7,5.3-6C21,16.3,20,12.8,18.2,11.3 M18.8,21.3c-0.5,4.4-3.8,4.7-4.4,4.9
				c-0.3,0.1-2.6,0.7-5.5,0.5c0,0-2.2,2.6-2.9,3.3c-0.1,0.1-0.2,0.2-0.3,0.1c-0.1,0-0.2-0.2-0.1-0.4c0-0.3,0-3.6,0-3.6c0,0,0,0,0,0
				c-4.3-1.2-4-5.7-4-8c0-2.3,0.5-4.3,1.8-5.6c2.4-2.1,7.2-1.8,7.2-1.8c4.1,0,6,1.2,6.5,1.7C18.6,13.7,19.3,16.8,18.8,21.3"/>
			<path id="Fill-4777" class="st0" d="M12.6,18.2c-0.1,0-0.3-0.1-0.3-0.3c0-0.9-0.5-1.4-1.4-1.4c-0.2,0-0.3-0.1-0.3-0.3
				c0-0.2,0.1-0.3,0.3-0.3c1.2,0.1,1.8,0.7,1.9,1.9C12.9,18,12.8,18.2,12.6,18.2C12.6,18.2,12.6,18.2,12.6,18.2"/>
			<path id="Fill-4779" class="st0" d="M14,18.7L14,18.7c-0.2,0-0.3-0.1-0.3-0.3c0-0.9-0.2-1.7-0.8-2.3c-0.6-0.6-1.3-1-2.4-1
				c-0.2,0-0.3-0.1-0.3-0.3c0-0.2,0.1-0.3,0.3-0.3c1.2,0.1,2.1,0.5,2.7,1.2c0.7,0.7,1,1.6,1,2.7C14.3,18.5,14.2,18.7,14,18.7"/>
			<path id="Fill-4781" class="st0" d="M15.5,19.2c-0.1,0-0.3-0.1-0.3-0.3c0-1.7-0.5-2.9-1.5-3.9c-1-0.9-2.2-1.4-3.6-1.4
				c-0.2,0-0.3-0.1-0.3-0.3c0-0.2,0.1-0.3,0.3-0.3h0c1.6,0,2.9,0.5,4,1.6c1.1,1,1.6,2.5,1.6,4.3C15.7,19.1,15.6,19.2,15.5,19.2
				L15.5,19.2z"/>
			<path id="Fill-4783" class="st0" d="M11.1,21.6c0,0,0.4,0,0.6-0.2l0.4-0.5c0.2-0.3,0.7-0.4,1.1-0.2c0.3,0.1,0.7,0.4,1,0.6
				c0.3,0.2,0.9,0.7,0.9,0.7c0.3,0.3,0.4,0.6,0.2,1c0,0,0,0,0,0c-0.2,0.4-0.5,0.7-0.8,1c0,0,0,0,0,0c-0.3,0.2-0.6,0.4-0.9,0.4
				c0,0-0.1,0-0.1,0c-0.1,0-0.2,0-0.4-0.1l0,0c-0.4-0.1-1.1-0.4-2.3-1.1c-0.8-0.4-1.4-0.9-2-1.3c-0.3-0.2-0.6-0.5-0.9-0.8
				c0,0,0,0,0,0c0,0,0,0,0,0l0,0v0c0,0,0,0,0,0c0,0,0,0,0,0c-0.3-0.3-0.6-0.6-0.8-0.9c-0.4-0.5-0.9-1.2-1.3-2
				c-0.7-1.2-1-1.9-1.1-2.3l0,0c0-0.1-0.1-0.2-0.1-0.4c0-0.1,0-0.1,0-0.1c0-0.3,0.2-0.6,0.4-0.9c0,0,0,0,0,0c0.3-0.4,0.7-0.6,1-0.8
				c0,0,0,0,0,0c0.4-0.2,0.8-0.1,1,0.2c0,0,0.5,0.6,0.7,0.9c0.2,0.3,0.5,0.7,0.6,1c0.3,0.5,0.1,0.9-0.2,1.1l-0.5,0.4
				C7.5,17.6,7.5,18,7.5,18S8.2,20.9,11.1,21.6"/>
		</g>
	</g>
</g>
</svg>
