<?xml version="1.0" encoding="utf-8"?>
<!-- Generator: Adobe Illustrator 21.0.2, SVG Export Plug-In . SVG Version: 6.00 Build 0)  -->
<svg version="1.1" id="Layer_1" xmlns="http://www.w3.org/2000/svg" xmlns:xlink="http://www.w3.org/1999/xlink" x="0px" y="0px"
	 width="22px" height="40px" viewBox="0 0 22 40" style="enable-background:new 0 0 22 40;" xml:space="preserve">
<style type="text/css">
	.st0{fill:#FFFFFF;}
</style>
<g id="Realese-1">
	<g id="Realese_user_page-FINAL" transform="translate(-158.000000, -488.000000)">
		<g id="_x35_" transform="translate(158.000000, 488.000000)">
			<path id="Fill-4" class="st0" d="M18.3,19.9c0,0,2.9-4.1,3.2-5.4c0.1-0.5-0.1-0.7-0.6-0.7h-2.5c-0.6,0-0.8,0.2-1,0.6
				c0,0-1.4,2.9-3,4.7c-0.5,0.6-0.8,0.8-1.1,0.8c-0.2,0-0.3-0.2-0.3-0.7v-4.7c0-0.7-0.1-0.8-0.6-0.8h-4c-0.3,0-0.5,0.2-0.5,0.4
				c0,0.6,0.9,0.8,0.9,2.4v3.4c0,0.7,0,1-0.4,1c-0.9,0-2.9-3-4.1-6.4c-0.2-0.7-0.5-0.9-1.1-0.9H0.6c-0.4,0-0.6,0.2-0.6,0.6
				c0,0.7,0.8,3.8,3.9,7.9c2.1,2.8,4.8,4.3,7.3,4.3c1.5,0,1.9-0.2,1.9-0.9v-2.2c0-0.5,0.2-0.8,0.5-0.8c0.3,0,1,0.1,2.4,1.5
				c1.7,1.6,1.8,2.3,2.7,2.3h2.8c0.3,0,0.6-0.1,0.6-0.6c0-0.6-0.8-1.8-2.1-3.1c-0.5-0.7-1.4-1.4-1.6-1.8
				C17.9,20.5,18,20.3,18.3,19.9"/>
		</g>
	</g>
</g>
</svg>
