<?xml version="1.0" encoding="utf-8"?>
<!-- Generator: Adobe Illustrator 21.0.2, SVG Export Plug-In . SVG Version: 6.00 Build 0)  -->
<svg version="1.1" id="Layer_1" xmlns="http://www.w3.org/2000/svg" xmlns:xlink="http://www.w3.org/1999/xlink" x="0px" y="0px"
	 width="22px" height="40px" viewBox="0 0 22 40" style="enable-background:new 0 0 22 40;" xml:space="preserve">
<style type="text/css">
	.st0{fill:#FFFFFF;}
</style>
<g id="Realese-1">
	<g id="Realese_user_page-FINAL" transform="translate(-158.000000, -398.000000)">
		<g id="_x32_" transform="translate(158.000000, 398.000000)">
			<path id="Fill-5" class="st0" d="M11.2,28.8c-2.8,0-5-1.5-5-1.5l-3.4,1.1l1.1-3.3c0,0-1.8-2.5-1.8-5.4c0-5,4.1-9.1,9.1-9.1
				s9.1,4.1,9.1,9.1S16.2,28.8,11.2,28.8L11.2,28.8z M11.2,8.9c-6,0-10.8,4.9-10.8,10.8c0,3,1.6,5.6,1.6,5.6L0,31.1l5.9-1.9
				c0,0,2.2,1.3,5.2,1.3c6,0,10.8-4.9,10.8-10.8S17.1,8.9,11.2,8.9L11.2,8.9z"/>
			<path id="Fill-6" class="st0" d="M7,15c0,0,0.3-0.2,0.4-0.2h0.9c0,0,0.2,0,0.3,0.3c0.1,0.2,0.8,1.9,0.9,2.1
				c0.1,0.1,0.2,0.5,0,0.7c-0.2,0.3-0.7,0.8-0.7,0.8s-0.2,0.2,0,0.4c0.2,0.3,0.7,1.1,1.5,1.8c0.7,0.7,1.6,1.2,2.1,1.3
				c0.5,0.1,0.6,0,0.7-0.3c0.2-0.2,0.7-0.9,0.7-0.9s0.2-0.3,0.6-0.1c0.4,0.2,2.1,1,2.1,1s0.2,0,0.2,0.3c0,0.2,0.2,1-0.5,1.7
				c-0.6,0.7-2,1-2.7,0.8c-0.6-0.2-2.8-0.7-4.2-2c-1.4-1.3-2.5-2.7-3-3.7C5.9,18,6,17.4,6,17.2C6,16.9,6.2,15.6,7,15"/>
		</g>
	</g>
</g>
</svg>
